# OBJ generated by ONSHAPE BY PTC INC, 1.190 Units = meters
mtllib s4-v0.mtl
g BR door
v -7.62198 2 -4.6479 
v -7.575 2 -4.665 
v -7.88282 2 -5.51072 
v -7.9298 2 -5.49362 
v -7.62198 -1.1118e-17 -4.6479 
v -7.575 -1.87124e-17 -4.665 
v -7.9298 -7.86375e-16 -5.49362 
v -7.88282 -7.93969e-16 -5.51072 
vn -1.51887e-16 1 -8.61397e-16 
vn 0.34202 8.61397e-16 0.939693 
vn 1.51887e-16 -1 8.61397e-16 
vn -0.34202 -8.61397e-16 -0.939693 
vn 0.939693 -1.51887e-16 -0.34202 
vn -0.939693 1.51887e-16 0.34202 
usemtl 0.980392_0.713725_0.003922_0.000000_0.000000
o mesh0
f 1//1 2//1 3//1 
f 3//1 4//1 1//1 
o mesh1
f 1//2 5//2 6//2 
f 6//2 2//2 1//2 
o mesh2
f 6//3 5//3 7//3 
f 7//3 8//3 6//3 
o mesh3
f 8//4 7//4 4//4 
f 4//4 3//4 8//4 
o mesh4
f 3//5 2//5 6//5 
f 6//5 8//5 3//5 
o mesh5
f 1//6 4//6 7//6 
f 7//6 5//6 1//6 
g Exterior Walls
v 7.375 5 -4.815 
v -8.88178e-16 5 -4.815 
v -8.88178e-16 0 -4.815 
v -7.375 0 -4.815 
v -7.375 5 -4.815 
v 7.375 0 -4.815 
v 7.375 0 4.815 
v 7.375 5 4.815 
v 7.375 2 -2.865 
v 7.375 2 -4.665 
v 7.375 0 -4.665 
v 7.375 0 -2.865 
v -7.375 5 4.815 
v 0 5 4.815 
v 0 0 4.815 
v -7.375 0 4.815 
v 7.525 0 -4.665 
v 7.525 2 -4.665 
v 7.525 2 -2.865 
v 7.525 0 -2.865 
v 7.525 0 -4.965 
v 7.525 5 -4.965 
v 7.525 5 4.965 
v 7.525 0 4.965 
v 8.88178e-16 5 -4.965 
v -7.525 5 -4.965 
v -7.525 5 4.965 
v 0 5 4.965 
v 0 0 4.965 
v -7.525 0 4.965 
v 8.88178e-16 0 -4.965 
v -7.525 0 -4.965 
v -7.525 0 -2.865 
v -7.375 0 -2.865 
v -7.525 0 -4.665 
v -7.375 0 -4.665 
v -7.375 2 -4.665 
v -7.375 2 -2.865 
v -7.525 2 -2.865 
v -7.525 2 -4.665 
vn 0 0 1 
vn -1 0 -1.83697e-16 
vn 0 0 -1 
vn -1.83697e-16 0 1 
vn 0 -1 0 
vn 1.83697e-16 0 -1 
vn 1 0 1.83697e-16 
vn 0 1 0 
vn 0 0 1 
vn 0 0 -1 
vn 0 -1 0 
vn 1 0 1.83697e-16 
vn -1 0 -1.83697e-16 
vn 0 -1 0 
vn 1.83697e-16 0 -1 
vn -1.83697e-16 0 1 
usemtl 0.615686_0.811765_0.929412_0.000000_0.000000
o mesh6
f 9//7 10//7 11//7 
f 12//7 11//7 10//7 
f 10//7 13//7 12//7 
f 11//7 14//7 9//7 
o mesh7
f 15//8 16//8 17//8 
f 9//8 18//8 17//8 
f 17//8 16//8 9//8 
f 14//8 19//8 18//8 
f 18//8 9//8 14//8 
f 17//8 20//8 15//8 
o mesh8
f 21//9 22//9 23//9 
f 15//9 23//9 22//9 
f 22//9 16//9 15//9 
f 23//9 24//9 21//9 
o mesh9
f 18//10 19//10 25//10 
f 25//10 26//10 18//10 
o mesh10
f 17//11 18//11 26//11 
f 26//11 27//11 17//11 
o mesh11
f 28//12 20//12 17//12 
f 17//12 27//12 28//12 
o mesh12
f 29//13 30//13 26//13 
f 30//13 31//13 27//13 
f 27//13 26//13 30//13 
f 32//13 28//13 27//13 
f 27//13 31//13 32//13 
f 26//13 25//13 29//13 
o mesh13
f 33//14 34//14 13//14 
f 33//14 10//14 9//14 
f 31//14 30//14 9//14 
f 9//14 30//14 33//14 
f 13//14 10//14 33//14 
f 34//14 35//14 21//14 
f 36//14 31//14 16//14 
f 36//14 22//14 21//14 
f 21//14 13//14 34//14 
f 21//14 35//14 36//14 
f 16//14 22//14 36//14 
f 9//14 16//14 31//14 
o mesh14
f 31//15 36//15 37//15 
f 38//15 37//15 36//15 
f 36//15 35//15 38//15 
f 37//15 32//15 31//15 
o mesh15
f 34//16 33//16 39//16 
f 29//16 39//16 33//16 
f 33//16 30//16 29//16 
f 39//16 40//16 34//16 
o mesh16
f 37//17 38//17 24//17 
f 37//17 23//17 15//17 
f 28//17 32//17 15//17 
f 15//17 32//17 37//17 
f 24//17 23//17 37//17 
f 41//17 42//17 24//17 
f 24//17 38//17 41//17 
f 15//17 20//17 28//17 
o mesh17
f 39//17 29//17 14//17 
f 39//17 11//17 12//17 
f 43//17 40//17 12//17 
f 12//17 40//17 39//17 
f 14//17 11//17 39//17 
f 25//17 19//17 14//17 
f 14//17 29//17 25//17 
f 12//17 44//17 43//17 
o mesh18
f 12//18 13//18 45//18 
f 13//18 21//18 46//18 
f 46//18 45//18 13//18 
f 24//18 42//18 46//18 
f 46//18 21//18 24//18 
f 45//18 44//18 12//18 
o mesh19
f 38//19 35//19 47//19 
f 34//19 48//19 47//19 
f 47//19 35//19 34//19 
f 40//19 43//19 48//19 
f 48//19 34//19 40//19 
f 47//19 41//19 38//19 
o mesh20
f 48//20 45//20 46//20 
f 46//20 47//20 48//20 
o mesh21
f 46//21 42//21 41//21 
f 41//21 47//21 46//21 
o mesh22
f 43//22 44//22 45//22 
f 45//22 48//22 43//22 
g Back Wall
v -7.375 0 -0.135 
v -5.19593 0 -0.135 
v -5.19593 0 0.015 
v -7.375 0 0.015 
v -7.375 3 -0.135 
v -7.375 3 0.015 
v -5.19593 2 -0.135 
v -5.19593 2 0.015 
v -4.29593 2 -0.135 
v -4.29593 2 0.015 
v -4.29593 0 -0.135 
v -4.29593 0 0.015 
v -3.825 3 -0.135 
v -3.825 0 -0.135 
v -3.825 0 0.015 
v -3.825 3 0.015 
v -3.825 0 -1.115 
v -3.825 3 -1.115 
v -3.675 3 -1.115 
v -3.675 0 -1.115 
v -3.825 0 2.395 
v -3.825 3 2.395 
v -3.675 3 2.245 
v -3.675 0 2.245 
v 1.925 0 2.395 
v 1.925 0 2.245 
v 7.375 3 2.395 
v 7.375 3 2.245 
v 1.85 3 2.245 
v 1.775 3 2.395 
v 7.375 0 2.395 
v 7.375 0 2.245 
v 3.725 0 2.395 
v 3.725 0 2.245 
v 1.925 2 2.395 
v 3.725 2 2.395 
v 3.725 2 2.245 
v 1.925 2 2.245 
vn 0 -1 0 
vn -1 0 0 
vn 1 0 -1.83697e-16 
vn 0 -1 0 
vn -1 0 1.83697e-16 
vn -1.83697e-16 0 -1 
vn 1.83697e-16 0 1 
vn -1 0 0 
vn 0 0 -1 
vn 1 0 0 
vn 0 -1 0 
vn 0 1 0 
vn 1 0 0 
vn 0 -1 0 
vn -1.22465e-16 0 1 
vn 1.22465e-16 0 -1 
vn 0 -1 0 
vn 1 0 1.22465e-16 
vn -1 0 -1.22465e-16 
usemtl 0.647059_0.647059_0.647059_0.000000_0.000000
o mesh23
f 49//23 50//23 51//23 
f 51//23 52//23 49//23 
o mesh24
f 53//24 49//24 52//24 
f 52//24 54//24 53//24 
o mesh25
f 51//25 50//25 55//25 
f 55//25 56//25 51//25 
o mesh26
f 56//26 55//26 57//26 
f 57//26 58//26 56//26 
o mesh27
f 57//27 59//27 60//27 
f 60//27 58//27 57//27 
o mesh28
f 49//28 53//28 55//28 
f 61//28 57//28 55//28 
f 55//28 53//28 61//28 
f 62//28 59//28 57//28 
f 57//28 61//28 62//28 
f 55//28 50//28 49//28 
o mesh29
f 63//29 64//29 58//29 
f 64//29 54//29 56//29 
f 56//29 58//29 64//29 
f 52//29 51//29 56//29 
f 56//29 54//29 52//29 
f 58//29 60//29 63//29 
o mesh30
f 65//30 62//30 61//30 
f 61//30 66//30 65//30 
o mesh31
f 67//31 68//31 65//31 
f 65//31 66//31 67//31 
o mesh32
f 69//30 70//30 64//30 
f 64//30 63//30 69//30 
o mesh33
f 71//32 72//32 68//32 
f 68//32 67//32 71//32 
o mesh34
f 68//33 63//33 62//33 
f 63//33 60//33 59//33 
f 59//33 62//33 63//33 
f 72//33 69//33 63//33 
f 73//33 69//33 72//33 
f 63//33 68//33 72//33 
f 62//33 65//33 68//33 
f 72//33 74//33 73//33 
o mesh35
f 75//34 76//34 77//34 
f 78//34 77//34 71//34 
f 71//34 61//34 64//34 
f 71//34 70//34 78//34 
f 77//34 78//34 75//34 
f 64//34 61//34 53//34 
f 53//34 54//34 64//34 
f 67//34 66//34 61//34 
f 61//34 71//34 67//34 
f 64//34 70//34 71//34 
o mesh36
f 75//35 79//35 80//35 
f 80//35 76//35 75//35 
o mesh37
f 79//36 81//36 82//36 
f 82//36 80//36 79//36 
o mesh38
f 78//37 83//37 84//37 
f 79//37 75//37 84//37 
f 84//37 75//37 78//37 
f 78//37 70//37 83//37 
f 69//37 73//37 83//37 
f 83//37 70//37 69//37 
f 84//37 81//37 79//37 
o mesh39
f 77//38 76//38 85//38 
f 86//38 71//38 77//38 
f 80//38 82//38 85//38 
f 72//38 71//38 86//38 
f 85//38 76//38 80//38 
f 85//38 86//38 77//38 
f 86//38 74//38 72//38 
o mesh40
f 83//39 86//39 85//39 
f 85//39 84//39 83//39 
o mesh41
f 74//40 86//40 83//40 
f 83//40 73//40 74//40 
o mesh42
f 84//41 85//41 82//41 
f 82//41 81//41 84//41 
g BSR door
v 4.175 2 3.22442 
v 3.725 2 2.445 
v 3.6817 2 2.47 
v 4.1317 2 3.24942 
v 4.175 -1.96727e-16 3.22442 
v 4.1317 -2.1338e-16 3.24942 
v 3.6817 -4.03134e-17 2.47 
v 3.725 -2.366e-17 2.445 
vn -1.92296e-16 1 3.33067e-16 
vn 0.5 -1.92296e-16 0.866025 
vn 1.92296e-16 -1 -3.33067e-16 
vn -0.5 1.92296e-16 -0.866025 
vn 0.866025 3.33067e-16 -0.5 
vn -0.866025 -3.33067e-16 0.5 
usemtl 0.231373_0.380392_0.705882_0.000000_0.000000
o mesh43
f 87//42 88//42 89//42 
f 89//42 90//42 87//42 
o mesh44
f 91//43 87//43 90//43 
f 90//43 92//43 91//43 
o mesh45
f 92//44 93//44 94//44 
f 94//44 91//44 92//44 
o mesh46
f 94//45 93//45 89//45 
f 89//45 88//45 94//45 
o mesh47
f 87//46 91//46 94//46 
f 94//46 88//46 87//46 
o mesh48
f 92//47 90//47 89//47 
f 89//47 93//47 92//47 
g BSL door
v 1.475 2 3.22442 
v 1.5183 2 3.24942 
v 1.9683 2 2.47 
v 1.925 2 2.445 
v 1.9683 0 2.47 
v 1.925 0 2.445 
v 1.5183 0 3.24942 
v 1.475 0 3.22442 
vn 0 1 0 
vn 0.5 0 -0.866025 
vn 0 -1 0 
vn -0.5 0 0.866025 
vn -0.866025 0 -0.5 
vn 0.866025 0 0.5 
o mesh49
f 95//48 96//48 97//48 
f 97//48 98//48 95//48 
o mesh50
f 98//49 97//49 99//49 
f 99//49 100//49 98//49 
o mesh51
f 99//50 101//50 102//50 
f 102//50 100//50 99//50 
o mesh52
f 102//51 101//51 96//51 
f 96//51 95//51 102//51 
o mesh53
f 102//52 95//52 98//52 
f 98//52 100//52 102//52 
o mesh54
f 99//53 97//53 96//53 
f 96//53 101//53 99//53 
g Stage
v 2.805 0.15 -4.815 
v 2.805 0 -4.815 
v -2.295 0 -4.815 
v -2.295 0.15 -4.815 
v -2.295 0 -1.995 
v -2.295 0.15 -1.995 
v 2.805 0 -1.995 
v 2.805 0.15 -1.995 
vn 0 0 -1 
vn -1 0 0 
vn 0 0 1 
vn 1 0 0 
vn 0 1 0 
vn 0 -1 0 
usemtl 0.917647_0.917647_0.917647_0.000000_0.000000
o mesh55
f 103//54 104//54 105//54 
f 105//54 106//54 103//54 
o mesh56
f 106//55 105//55 107//55 
f 107//55 108//55 106//55 
o mesh57
f 108//56 107//56 109//56 
f 109//56 110//56 108//56 
o mesh58
f 110//57 109//57 104//57 
f 104//57 103//57 110//57 
o mesh59
f 110//58 103//58 106//58 
f 106//58 108//58 110//58 
o mesh60
f 107//59 105//59 104//59 
f 104//59 109//59 107//59 
g HL backstage door
v -3.84593 2 0.844423 
v -3.88923 2 0.869423 
v -3.88923 0 0.869423 
v -3.84593 0 0.844423 
v -4.33923 0 0.09 
v -4.29593 0 0.065 
v -4.33923 2 0.09 
v -4.29593 2 0.065 
vn 0.5 0 0.866025 
vn 0 -1 0 
vn -0.5 0 -0.866025 
vn 0 1 0 
vn 0.866025 0 -0.5 
vn -0.866025 0 0.5 
usemtl 0.768627_0.886275_0.952941_0.000000_0.000000
o mesh61
f 111//60 112//60 113//60 
f 113//60 114//60 111//60 
o mesh62
f 114//61 113//61 115//61 
f 115//61 116//61 114//61 
o mesh63
f 116//62 115//62 117//62 
f 117//62 118//62 116//62 
o mesh64
f 111//63 118//63 117//63 
f 117//63 112//63 111//63 
o mesh65
f 118//64 111//64 114//64 
f 114//64 116//64 118//64 
o mesh66
f 115//65 113//65 112//65 
f 112//65 117//65 115//65 
g Entryway - Front
v 4.74839 0 -2.06534 
v 4.793 0 -2.20855 
v 5.22473 0 -2.07406 
v 5.18012 0 -1.93084 
v 4.793 3 -2.20855 
v 4.74839 3 -2.06534 
v 7.33038 3 -1.26096 
v 7.375 3 -1.40418 
v 7.33038 0 -1.26096 
v 7.375 0 -1.40418 
v 6.89866 0 -1.39546 
v 6.94327 0 -1.53867 
v 5.22473 2 -2.07406 
v 6.94327 2 -1.53867 
v 6.89866 2 -1.39546 
v 5.18012 2 -1.93084 
vn 0 -1 0 
vn -0.954742 0 -0.297434 
vn 0 1 0 
vn 0.954742 0 0.297434 
vn 0 -1 0 
vn 0.297434 0 -0.954742 
vn -0.297434 0 0.954742 
vn 0 -1 0 
vn 0.954742 0 0.297434 
vn -0.954742 0 -0.297434 
usemtl 0.972549_0.529412_0.003922_0.000000_0.000000
o mesh67
f 119//66 120//66 121//66 
f 121//66 122//66 119//66 
o mesh68
f 123//67 120//67 119//67 
f 119//67 124//67 123//67 
o mesh69
f 124//68 125//68 126//68 
f 126//68 123//68 124//68 
o mesh70
f 125//69 127//69 128//69 
f 128//69 126//69 125//69 
o mesh71
f 128//70 127//70 129//70 
f 129//70 130//70 128//70 
o mesh72
f 120//71 123//71 131//71 
f 126//71 132//71 131//71 
f 131//71 123//71 126//71 
f 128//71 130//71 132//71 
f 132//71 126//71 128//71 
f 131//71 121//71 120//71 
o mesh73
f 127//72 125//72 133//72 
f 125//72 124//72 134//72 
f 134//72 133//72 125//72 
f 119//72 122//72 134//72 
f 134//72 124//72 119//72 
f 133//72 129//72 127//72 
o mesh74
f 131//73 132//73 133//73 
f 133//73 134//73 131//73 
o mesh75
f 121//74 131//74 134//74 
f 134//74 122//74 121//74 
o mesh76
f 132//75 130//75 129//75 
f 129//75 133//75 132//75 
g Entryway - Side
v 5.605 0 -4.815 
v 5.605 3 -4.815 
v 4.71066 3 -1.94425 
v 4.555 0 -1.44457 
v 5.46179 0 -4.85962 
v 5.46179 3 -4.85962 
v 4.41179 -4.44089e-16 -1.48919 
v 4.56745 3 -1.98886 
vn 0.954742 0 0.297434 
vn 0.297434 0 -0.954742 
vn -0.954742 0 -0.297434 
vn 0 1 0 
vn 0 -1 0 
vn -0.293009 0.171857 0.940538 
o mesh77
f 135//76 136//76 137//76 
f 137//76 138//76 135//76 
o mesh78
f 136//77 135//77 139//77 
f 139//77 140//77 136//77 
o mesh79
f 139//78 141//78 142//78 
f 142//78 140//78 139//78 
o mesh80
f 142//79 137//79 136//79 
f 136//79 140//79 142//79 
o mesh81
f 141//80 139//80 135//80 
f 135//80 138//80 141//80 
o mesh82
f 142//81 141//81 138//81 
f 138//81 137//81 142//81 
g FL door
v 7.88282 -5.735e-16 -2.01928 
v 7.575 -4.91727e-17 -2.865 
v 7.62198 -8.84453e-17 -2.8821 
v 7.9298 -6.12773e-16 -2.03638 
v 7.9298 2 -2.03638 
v 7.88282 2 -2.01928 
v 7.575 2 -2.865 
v 7.62198 2 -2.8821 
vn -9.3734e-16 -1 -2.78811e-16 
vn 0.34202 -5.82586e-16 0.939693 
vn 9.3734e-16 1 2.78811e-16 
vn -0.34202 5.82586e-16 -0.939693 
vn -0.939693 7.85453e-16 0.34202 
vn 0.939693 -7.85453e-16 -0.34202 
usemtl 0.498039_0.498039_0.498039_0.000000_0.000000
o mesh83
f 143//82 144//82 145//82 
f 145//82 146//82 143//82 
o mesh84
f 146//83 147//83 148//83 
f 148//83 143//83 146//83 
o mesh85
f 149//84 148//84 147//84 
f 147//84 150//84 149//84 
o mesh86
f 150//85 145//85 144//85 
f 144//85 149//85 150//85 
o mesh87
f 149//86 144//86 143//86 
f 143//86 148//86 149//86 
o mesh88
f 147//87 146//87 145//87 
f 145//87 150//87 147//87 
g FR door
v 7.575 0 -4.665 
v 7.62198 0 -4.6479 
v 7.62198 2 -4.6479 
v 7.575 2 -4.665 
v 7.9298 2 -5.49362 
v 7.88282 2 -5.51072 
v 7.9298 0 -5.49362 
v 7.88282 0 -5.51072 
vn -0.34202 0 0.939693 
vn 0 1 0 
vn 0.34202 0 -0.939693 
vn 0 -1 0 
vn -0.939693 0 -0.34202 
vn 0.939693 0 0.34202 
o mesh89
f 151//88 152//88 153//88 
f 153//88 154//88 151//88 
o mesh90
f 153//89 155//89 156//89 
f 156//89 154//89 153//89 
o mesh91
f 156//90 155//90 157//90 
f 157//90 158//90 156//90 
o mesh92
f 152//91 151//91 158//91 
f 158//91 157//91 152//91 
o mesh93
f 158//92 151//92 154//92 
f 154//92 156//92 158//92 
o mesh94
f 155//93 153//93 152//93 
f 152//93 157//93 155//93 
g BL door
v -7.88282 -2.67492e-16 -2.01928 
v -7.88282 2 -2.01928 
v -7.9298 2 -2.03638 
v -7.9298 -2.20625e-16 -2.03638 
v -7.62198 3.03048e-17 -2.8821 
v -7.575 -1.65622e-17 -2.865 
v -7.62198 2 -2.8821 
v -7.575 2 -2.865 
vn -0.34202 -2.78811e-16 0.939693 
vn -7.85453e-16 -1 -5.82586e-16 
vn 0.34202 2.78811e-16 -0.939693 
vn 7.85453e-16 1 5.82586e-16 
vn 0.939693 -9.3734e-16 0.34202 
vn -0.939693 9.3734e-16 -0.34202 
usemtl 0.980392_0.713725_0.003922_0.000000_0.000000
o mesh95
f 159//94 160//94 161//94 
f 161//94 162//94 159//94 
o mesh96
f 162//95 163//95 164//95 
f 164//95 159//95 162//95 
o mesh97
f 164//96 163//96 165//96 
f 165//96 166//96 164//96 
o mesh98
f 165//97 161//97 160//97 
f 160//97 166//97 165//97 
o mesh99
f 160//98 159//98 164//98 
f 164//98 166//98 160//98 
o mesh100
f 165//99 163//99 162//99 
f 162//99 161//99 165//99 
